<svg width="131" height="131" viewBox="0 0 131 131" fill="none" xmlns="http://www.w3.org/2000/svg">
<path d="M22.082 47.7825C22.082 45.8968 22.082 44.954 22.6678 44.3683C23.2536 43.7825 24.1964 43.7825 26.082 43.7825H48.9945C49.0989 43.7825 49.1511 43.7825 49.1904 43.7542C49.2297 43.7258 49.2462 43.6763 49.2792 43.5773L54.1807 28.8728C54.4007 28.2127 54.5107 27.8827 54.7726 27.694C55.0345 27.5052 55.3823 27.5052 56.078 27.5052H85.7495C86.4452 27.5052 86.7931 27.5052 87.055 27.694C87.3169 27.8827 87.4269 28.2127 87.6469 28.8728L92.5484 43.5773C92.5814 43.6763 92.5979 43.7258 92.6372 43.7542C92.6765 43.7825 92.7286 43.7825 92.833 43.7825H104.894C106.78 43.7825 107.722 43.7825 108.308 44.3683C108.894 44.954 108.894 45.8968 108.894 47.7825V94.0399C108.894 95.9256 108.894 96.8684 108.308 97.4542C107.722 98.04 106.78 98.04 104.894 98.04H26.082C24.1964 98.04 23.2536 98.04 22.6678 97.4542C22.082 96.8684 22.082 95.9256 22.082 94.04V47.7825Z" fill="#E8E8E8"/>
<path d="M79.0521 35.6438H62.7749" stroke="white" stroke-linecap="round" stroke-linejoin="round"/>
<circle cx="70.9135" cy="70.9112" r="16.2772" fill="white"/>
<rect x="22.082" y="32.931" width="16.2772" height="5.42575" rx="0.5" fill="#E8E8E8"/>
</svg>
