<svg width="20" height="20" viewBox="0 0 20 20" fill="none" xmlns="http://www.w3.org/2000/svg">
<path d="M1 6V3.1C1 1.9402 1.9402 1 3.1 1H6" stroke="#007AFF" stroke-width="1.5"/>
<path d="M7 1L13 1" stroke="#007AFF" stroke-width="1.5"/>
<path d="M1 7V13" stroke="#007AFF" stroke-width="1.5"/>
<path d="M7 19H13" stroke="#007AFF" stroke-width="1.5"/>
<path d="M19 7V13" stroke="#007AFF" stroke-width="1.5"/>
<path d="M19 6V3.1C19 1.9402 18.0598 1 16.9 1H14" stroke="#007AFF" stroke-width="1.5"/>
<path d="M19 14V16.9C19 18.0598 18.0598 19 16.9 19H14" stroke="#007AFF" stroke-width="1.5"/>
<path d="M1 14V16.9C1 18.0598 1.9402 19 3.1 19H6" stroke="#007AFF" stroke-width="1.5"/>
<rect x="4" y="4" width="12" height="12" rx="1" fill="#007AFF"/>
</svg>
