<svg width="24" height="24" viewBox="0 0 24 24" fill="none" xmlns="http://www.w3.org/2000/svg">
<path fill-rule="evenodd" clip-rule="evenodd" d="M5.96523 15.1693C5.41312 15.3173 5.13706 15.3912 5.04741 15.634C4.95775 15.8768 5.10645 16.0934 5.40385 16.5268C5.72055 16.9882 6.08631 17.4173 6.49645 17.8061C7.61864 18.8697 9.02501 19.5854 10.5454 19.8664C12.0658 20.1475 13.6351 19.982 15.0634 19.3899C16.4917 18.7978 17.7178 17.8045 18.5934 16.5301C19.469 15.2558 19.9565 13.755 19.997 12.2094C20.0375 10.6637 19.6293 9.13949 18.8217 7.82102C18.014 6.50255 16.8417 5.44637 15.4463 4.78025C14.5552 4.35481 13.5975 4.10013 12.6223 4.02401C12.0984 3.98311 11.8364 3.96266 11.671 4.16168C11.5056 4.36071 11.5795 4.63677 11.7275 5.18888L13.3707 11.3215L13.3733 11.331L13.3733 11.331C13.3857 11.3761 13.4274 11.5278 13.4468 11.6785C13.4735 11.8858 13.4902 12.2934 13.2447 12.7185C12.9992 13.1436 12.638 13.333 12.4451 13.4135C12.3049 13.4721 12.1526 13.5118 12.1074 13.5236L12.0979 13.5261L5.96523 15.1693Z" fill="#7E869E" fill-opacity="0.25"/>
<path d="M9.67063 3.30667C9.54649 2.84338 9.48442 2.61174 9.28694 2.51053C9.08946 2.40932 8.87978 2.48868 8.46042 2.64739C7.54796 2.99272 6.68924 3.47037 5.91239 4.06647C4.87054 4.8659 3.99636 5.86272 3.33975 7C2.68314 8.13728 2.25696 9.39275 2.08555 10.6947C1.95774 11.6656 1.97344 12.6481 2.13061 13.6109C2.20284 14.0535 2.23896 14.2747 2.42535 14.3952C2.61174 14.5156 2.84338 14.4535 3.30667 14.3294L11.0341 12.2588C11.4894 12.1368 11.7171 12.0758 11.8206 11.8964C11.9242 11.7171 11.8632 11.4894 11.7412 11.0341L9.67063 3.30667Z" fill="#222222"/>
</svg>
