<svg width="18" height="18" viewBox="0 0 18 18" fill="none" xmlns="http://www.w3.org/2000/svg">
<path d="M6.10352e-05 3C6.10352e-05 1.34315 1.34321 0 3.00006 0H18.0001V18H3.00006C1.34321 18 6.10352e-05 16.6569 6.10352e-05 15V3Z" fill="black" fill-opacity="0.18"/>
<rect x="3.75006" y="11.25" width="10.5" height="3" rx="1.5" fill="#A4A4A4" fill-opacity="0.25"/>
<path d="M9.00006 10.5L8.5758 10.9243L9.00006 11.3485L9.42432 10.9243L9.00006 10.5ZM9.60006 3.75C9.60006 3.41863 9.33143 3.15 9.00006 3.15C8.66869 3.15 8.40006 3.41863 8.40006 3.75L9.60006 3.75ZM4.8258 7.17426L8.5758 10.9243L9.42433 10.0757L5.67433 6.32574L4.8258 7.17426ZM9.42432 10.9243L13.1743 7.17426L12.3258 6.32574L8.5758 10.0757L9.42432 10.9243ZM9.60006 10.5L9.60006 3.75L8.40006 3.75L8.40006 10.5L9.60006 10.5Z" fill="white"/>
<path d="M3.75006 12L3.75006 12.75C3.75006 13.5784 4.42163 14.25 5.25006 14.25L12.7501 14.25C13.5785 14.25 14.2501 13.5784 14.2501 12.75V12" stroke="white" stroke-width="1.2"/>
</svg>
