<svg width="80" height="18" viewBox="0 0 80 18" fill="none" xmlns="http://www.w3.org/2000/svg">
<rect width="80" height="18" rx="3" fill="#1A83FF"/>
<path d="M24.4923 5.333C25.3283 5.333 26.0506 5.49067 26.6593 5.806C27.2753 6.114 27.7446 6.55767 28.0673 7.137C28.3973 7.71633 28.5623 8.39833 28.5623 9.183C28.5623 9.96767 28.3973 10.6497 28.0673 11.229C27.7446 11.801 27.2753 12.241 26.6593 12.549C26.0506 12.8497 25.3283 13 24.4923 13H22.1053V5.333H24.4923ZM24.4923 12.175C25.4823 12.175 26.2376 11.9147 26.7583 11.394C27.279 10.866 27.5393 10.129 27.5393 9.183C27.5393 8.22967 27.2753 7.48533 26.7473 6.95C26.2266 6.41467 25.475 6.147 24.4923 6.147H23.1063V12.175H24.4923ZM32.5116 13.099C31.947 13.099 31.4336 12.9707 30.9716 12.714C30.517 12.4573 30.1576 12.0943 29.8936 11.625C29.637 11.1483 29.5086 10.5983 29.5086 9.975C29.5086 9.359 29.6406 8.81633 29.9046 8.347C30.176 7.87033 30.5426 7.50733 31.0046 7.258C31.4666 7.00133 31.9836 6.873 32.5556 6.873C33.1276 6.873 33.6446 7.00133 34.1066 7.258C34.5686 7.50733 34.9316 7.86667 35.1956 8.336C35.467 8.80533 35.6026 9.35167 35.6026 9.975C35.6026 10.5983 35.4633 11.1483 35.1846 11.625C34.9133 12.0943 34.543 12.4573 34.0736 12.714C33.6043 12.9707 33.0836 13.099 32.5116 13.099ZM32.5116 12.219C32.871 12.219 33.2083 12.1347 33.5236 11.966C33.839 11.7973 34.092 11.5443 34.2826 11.207C34.4806 10.8697 34.5796 10.459 34.5796 9.975C34.5796 9.491 34.4843 9.08033 34.2936 8.743C34.103 8.40567 33.8536 8.15633 33.5456 7.995C33.2376 7.82633 32.904 7.742 32.5446 7.742C32.178 7.742 31.8406 7.82633 31.5326 7.995C31.232 8.15633 30.99 8.40567 30.8066 8.743C30.6233 9.08033 30.5316 9.491 30.5316 9.975C30.5316 10.4663 30.6196 10.8807 30.7956 11.218C30.979 11.5553 31.221 11.8083 31.5216 11.977C31.8223 12.1383 32.1523 12.219 32.5116 12.219ZM44.9488 6.972L43.0678 13H42.0338L40.5818 8.215L39.1298 13H38.0958L36.2038 6.972H37.2268L38.6128 12.032L40.1088 6.972H41.1318L42.5948 12.043L43.9588 6.972H44.9488ZM48.8792 6.862C49.6125 6.862 50.2065 7.08567 50.6612 7.533C51.1159 7.973 51.3432 8.611 51.3432 9.447V13H50.3532V9.59C50.3532 8.98867 50.2029 8.53033 49.9022 8.215C49.6015 7.89233 49.1909 7.731 48.6702 7.731C48.1422 7.731 47.7205 7.896 47.4052 8.226C47.0972 8.556 46.9432 9.03633 46.9432 9.667V13H45.9422V6.972H46.9432V7.83C47.1412 7.522 47.4089 7.28367 47.7462 7.115C48.0909 6.94633 48.4685 6.862 48.8792 6.862ZM53.9793 4.86V13H52.9783V4.86H53.9793ZM58.3144 13.099C57.7497 13.099 57.2364 12.9707 56.7744 12.714C56.3197 12.4573 55.9604 12.0943 55.6964 11.625C55.4397 11.1483 55.3114 10.5983 55.3114 9.975C55.3114 9.359 55.4434 8.81633 55.7074 8.347C55.9787 7.87033 56.3454 7.50733 56.8074 7.258C57.2694 7.00133 57.7864 6.873 58.3584 6.873C58.9304 6.873 59.4474 7.00133 59.9094 7.258C60.3714 7.50733 60.7344 7.86667 60.9984 8.336C61.2697 8.80533 61.4054 9.35167 61.4054 9.975C61.4054 10.5983 61.266 11.1483 60.9874 11.625C60.716 12.0943 60.3457 12.4573 59.8764 12.714C59.407 12.9707 58.8864 13.099 58.3144 13.099ZM58.3144 12.219C58.6737 12.219 59.011 12.1347 59.3264 11.966C59.6417 11.7973 59.8947 11.5443 60.0854 11.207C60.2834 10.8697 60.3824 10.459 60.3824 9.975C60.3824 9.491 60.287 9.08033 60.0964 8.743C59.9057 8.40567 59.6564 8.15633 59.3484 7.995C59.0404 7.82633 58.7067 7.742 58.3474 7.742C57.9807 7.742 57.6434 7.82633 57.3354 7.995C57.0347 8.15633 56.7927 8.40567 56.6094 8.743C56.426 9.08033 56.3344 9.491 56.3344 9.975C56.3344 10.4663 56.4224 10.8807 56.5984 11.218C56.7817 11.5553 57.0237 11.8083 57.3244 11.977C57.625 12.1383 57.955 12.219 58.3144 12.219ZM62.3475 9.964C62.3475 9.348 62.4722 8.809 62.7215 8.347C62.9708 7.87767 63.3118 7.51467 63.7445 7.258C64.1845 7.00133 64.6722 6.873 65.2075 6.873C65.7355 6.873 66.1938 6.98667 66.5825 7.214C66.9712 7.44133 67.2608 7.72733 67.4515 8.072V6.972H68.4635V13H67.4515V11.878C67.2535 12.23 66.9565 12.5233 66.5605 12.758C66.1718 12.9853 65.7172 13.099 65.1965 13.099C64.6612 13.099 64.1772 12.967 63.7445 12.703C63.3118 12.439 62.9708 12.0687 62.7215 11.592C62.4722 11.1153 62.3475 10.5727 62.3475 9.964ZM67.4515 9.975C67.4515 9.52033 67.3598 9.12433 67.1765 8.787C66.9932 8.44967 66.7438 8.193 66.4285 8.017C66.1205 7.83367 65.7795 7.742 65.4055 7.742C65.0315 7.742 64.6905 7.83 64.3825 8.006C64.0745 8.182 63.8288 8.43867 63.6455 8.776C63.4622 9.11333 63.3705 9.50933 63.3705 9.964C63.3705 10.426 63.4622 10.8293 63.6455 11.174C63.8288 11.5113 64.0745 11.7717 64.3825 11.955C64.6905 12.131 65.0315 12.219 65.4055 12.219C65.7795 12.219 66.1205 12.131 66.4285 11.955C66.7438 11.7717 66.9932 11.5113 67.1765 11.174C67.3598 10.8293 67.4515 10.4297 67.4515 9.975ZM69.7811 9.964C69.7811 9.348 69.9058 8.809 70.1551 8.347C70.4044 7.87767 70.7454 7.51467 71.1781 7.258C71.6181 7.00133 72.1094 6.873 72.6521 6.873C73.1214 6.873 73.5578 6.983 73.9611 7.203C74.3644 7.41567 74.6724 7.698 74.8851 8.05V4.86H75.8971V13H74.8851V11.867C74.6871 12.2263 74.3938 12.5233 74.0051 12.758C73.6164 12.9853 73.1618 13.099 72.6411 13.099C72.1058 13.099 71.6181 12.967 71.1781 12.703C70.7454 12.439 70.4044 12.0687 70.1551 11.592C69.9058 11.1153 69.7811 10.5727 69.7811 9.964ZM74.8851 9.975C74.8851 9.52033 74.7934 9.12433 74.6101 8.787C74.4268 8.44967 74.1774 8.193 73.8621 8.017C73.5541 7.83367 73.2131 7.742 72.8391 7.742C72.4651 7.742 72.1241 7.83 71.8161 8.006C71.5081 8.182 71.2624 8.43867 71.0791 8.776C70.8958 9.11333 70.8041 9.50933 70.8041 9.964C70.8041 10.426 70.8958 10.8293 71.0791 11.174C71.2624 11.5113 71.5081 11.7717 71.8161 11.955C72.1241 12.131 72.4651 12.219 72.8391 12.219C73.2131 12.219 73.5541 12.131 73.8621 11.955C74.1774 11.7717 74.4268 11.5113 74.6101 11.174C74.7934 10.8293 74.8851 10.4297 74.8851 9.975Z" fill="white"/>
<path d="M0 3C0 1.34315 1.34315 0 3 0H18V18H3C1.34315 18 0 16.6569 0 15V3Z" fill="black" fill-opacity="0.18"/>
<rect x="3.75" y="11.25" width="10.5" height="3" rx="1.5" fill="#A4A4A4" fill-opacity="0.25"/>
<path d="M9 10.5L8.57574 10.9243L9 11.3485L9.42426 10.9243L9 10.5ZM9.6 3.75C9.6 3.41863 9.33137 3.15 9 3.15C8.66863 3.15 8.4 3.41863 8.4 3.75L9.6 3.75ZM4.82574 7.17426L8.57574 10.9243L9.42426 10.0757L5.67426 6.32574L4.82574 7.17426ZM9.42426 10.9243L13.1743 7.17426L12.3257 6.32574L8.57574 10.0757L9.42426 10.9243ZM9.6 10.5L9.6 3.75L8.4 3.75L8.4 10.5L9.6 10.5Z" fill="white"/>
<path d="M3.75 12L3.75 12.75C3.75 13.5784 4.42157 14.25 5.25 14.25L12.75 14.25C13.5784 14.25 14.25 13.5784 14.25 12.75V12" stroke="white" stroke-width="1.2"/>
</svg>
