<svg width="134" height="18" viewBox="0 0 134 18" fill="none" xmlns="http://www.w3.org/2000/svg">
<rect width="134" height="18" rx="3" fill="#1A83FF"/>
<path d="M43.6129 5.333C44.4489 5.333 45.1712 5.49067 45.7799 5.806C46.3959 6.114 46.8652 6.55767 47.1879 7.137C47.5179 7.71633 47.6829 8.39833 47.6829 9.183C47.6829 9.96767 47.5179 10.6497 47.1879 11.229C46.8652 11.801 46.3959 12.241 45.7799 12.549C45.1712 12.8497 44.4489 13 43.6129 13H41.2259V5.333H43.6129ZM43.6129 12.175C44.6029 12.175 45.3582 11.9147 45.8789 11.394C46.3996 10.866 46.6599 10.129 46.6599 9.183C46.6599 8.22967 46.3959 7.48533 45.8679 6.95C45.3472 6.41467 44.5956 6.147 43.6129 6.147H42.2269V12.175H43.6129ZM51.6323 13.099C51.0676 13.099 50.5543 12.9707 50.0923 12.714C49.6376 12.4573 49.2783 12.0943 49.0143 11.625C48.7576 11.1483 48.6293 10.5983 48.6293 9.975C48.6293 9.359 48.7613 8.81633 49.0253 8.347C49.2966 7.87033 49.6633 7.50733 50.1253 7.258C50.5873 7.00133 51.1043 6.873 51.6763 6.873C52.2483 6.873 52.7653 7.00133 53.2273 7.258C53.6893 7.50733 54.0523 7.86667 54.3163 8.336C54.5876 8.80533 54.7233 9.35167 54.7233 9.975C54.7233 10.5983 54.5839 11.1483 54.3053 11.625C54.0339 12.0943 53.6636 12.4573 53.1943 12.714C52.7249 12.9707 52.2043 13.099 51.6323 13.099ZM51.6323 12.219C51.9916 12.219 52.3289 12.1347 52.6443 11.966C52.9596 11.7973 53.2126 11.5443 53.4033 11.207C53.6013 10.8697 53.7003 10.459 53.7003 9.975C53.7003 9.491 53.6049 9.08033 53.4143 8.743C53.2236 8.40567 52.9743 8.15633 52.6663 7.995C52.3583 7.82633 52.0246 7.742 51.6653 7.742C51.2986 7.742 50.9613 7.82633 50.6533 7.995C50.3526 8.15633 50.1106 8.40567 49.9273 8.743C49.7439 9.08033 49.6523 9.491 49.6523 9.975C49.6523 10.4663 49.7403 10.8807 49.9163 11.218C50.0996 11.5553 50.3416 11.8083 50.6423 11.977C50.9429 12.1383 51.2729 12.219 51.6323 12.219ZM64.0694 6.972L62.1884 13H61.1544L59.7024 8.215L58.2504 13H57.2164L55.3244 6.972H56.3474L57.7334 12.032L59.2294 6.972H60.2524L61.7154 12.043L63.0794 6.972H64.0694ZM67.9998 6.862C68.7332 6.862 69.3272 7.08567 69.7818 7.533C70.2365 7.973 70.4638 8.611 70.4638 9.447V13H69.4738V9.59C69.4738 8.98867 69.3235 8.53033 69.0228 8.215C68.7222 7.89233 68.3115 7.731 67.7908 7.731C67.2628 7.731 66.8412 7.896 66.5258 8.226C66.2178 8.556 66.0638 9.03633 66.0638 9.667V13H65.0628V6.972H66.0638V7.83C66.2618 7.522 66.5295 7.28367 66.8668 7.115C67.2115 6.94633 67.5892 6.862 67.9998 6.862ZM73.1 4.86V13H72.099V4.86H73.1ZM77.435 13.099C76.8703 13.099 76.357 12.9707 75.895 12.714C75.4403 12.4573 75.081 12.0943 74.817 11.625C74.5603 11.1483 74.432 10.5983 74.432 9.975C74.432 9.359 74.564 8.81633 74.828 8.347C75.0993 7.87033 75.466 7.50733 75.928 7.258C76.39 7.00133 76.907 6.873 77.479 6.873C78.051 6.873 78.568 7.00133 79.03 7.258C79.492 7.50733 79.855 7.86667 80.119 8.336C80.3903 8.80533 80.526 9.35167 80.526 9.975C80.526 10.5983 80.3867 11.1483 80.108 11.625C79.8367 12.0943 79.4663 12.4573 78.997 12.714C78.5277 12.9707 78.007 13.099 77.435 13.099ZM77.435 12.219C77.7943 12.219 78.1317 12.1347 78.447 11.966C78.7623 11.7973 79.0153 11.5443 79.206 11.207C79.404 10.8697 79.503 10.459 79.503 9.975C79.503 9.491 79.4077 9.08033 79.217 8.743C79.0263 8.40567 78.777 8.15633 78.469 7.995C78.161 7.82633 77.8273 7.742 77.468 7.742C77.1013 7.742 76.764 7.82633 76.456 7.995C76.1553 8.15633 75.9133 8.40567 75.73 8.743C75.5467 9.08033 75.455 9.491 75.455 9.975C75.455 10.4663 75.543 10.8807 75.719 11.218C75.9023 11.5553 76.1443 11.8083 76.445 11.977C76.7457 12.1383 77.0757 12.219 77.435 12.219ZM81.4681 9.964C81.4681 9.348 81.5928 8.809 81.8421 8.347C82.0915 7.87767 82.4325 7.51467 82.8651 7.258C83.3051 7.00133 83.7928 6.873 84.3281 6.873C84.8561 6.873 85.3145 6.98667 85.7031 7.214C86.0918 7.44133 86.3815 7.72733 86.5721 8.072V6.972H87.5841V13H86.5721V11.878C86.3741 12.23 86.0771 12.5233 85.6811 12.758C85.2925 12.9853 84.8378 13.099 84.3171 13.099C83.7818 13.099 83.2978 12.967 82.8651 12.703C82.4325 12.439 82.0915 12.0687 81.8421 11.592C81.5928 11.1153 81.4681 10.5727 81.4681 9.964ZM86.5721 9.975C86.5721 9.52033 86.4805 9.12433 86.2971 8.787C86.1138 8.44967 85.8645 8.193 85.5491 8.017C85.2411 7.83367 84.9001 7.742 84.5261 7.742C84.1521 7.742 83.8111 7.83 83.5031 8.006C83.1951 8.182 82.9495 8.43867 82.7661 8.776C82.5828 9.11333 82.4911 9.50933 82.4911 9.964C82.4911 10.426 82.5828 10.8293 82.7661 11.174C82.9495 11.5113 83.1951 11.7717 83.5031 11.955C83.8111 12.131 84.1521 12.219 84.5261 12.219C84.9001 12.219 85.2411 12.131 85.5491 11.955C85.8645 11.7717 86.1138 11.5113 86.2971 11.174C86.4805 10.8293 86.5721 10.4297 86.5721 9.975ZM88.9017 9.964C88.9017 9.348 89.0264 8.809 89.2757 8.347C89.525 7.87767 89.866 7.51467 90.2987 7.258C90.7387 7.00133 91.23 6.873 91.7727 6.873C92.242 6.873 92.6784 6.983 93.0817 7.203C93.485 7.41567 93.793 7.698 94.0057 8.05V4.86H95.0177V13H94.0057V11.867C93.8077 12.2263 93.5144 12.5233 93.1257 12.758C92.737 12.9853 92.2824 13.099 91.7617 13.099C91.2264 13.099 90.7387 12.967 90.2987 12.703C89.866 12.439 89.525 12.0687 89.2757 11.592C89.0264 11.1153 88.9017 10.5727 88.9017 9.964ZM94.0057 9.975C94.0057 9.52033 93.914 9.12433 93.7307 8.787C93.5474 8.44967 93.298 8.193 92.9827 8.017C92.6747 7.83367 92.3337 7.742 91.9597 7.742C91.5857 7.742 91.2447 7.83 90.9367 8.006C90.6287 8.182 90.383 8.43867 90.1997 8.776C90.0164 9.11333 89.9247 9.50933 89.9247 9.964C89.9247 10.426 90.0164 10.8293 90.1997 11.174C90.383 11.5113 90.6287 11.7717 90.9367 11.955C91.2447 12.131 91.5857 12.219 91.9597 12.219C92.3337 12.219 92.6747 12.131 92.9827 11.955C93.298 11.7717 93.5474 11.5113 93.7307 11.174C93.914 10.8293 94.0057 10.4297 94.0057 9.975ZM104.174 11.295H100.83L100.214 13H99.1579L101.93 5.377H103.085L105.846 13H104.79L104.174 11.295ZM103.888 10.481L102.502 6.609L101.116 10.481H103.888ZM108.055 4.86V13H107.054V4.86H108.055ZM110.762 4.86V13H109.761V4.86H110.762Z" fill="white"/>
<path d="M0 3C0 1.34315 1.34315 0 3 0H18V18H3C1.34315 18 0 16.6569 0 15V3Z" fill="black" fill-opacity="0.18"/>
<rect x="3.75" y="11.25" width="10.5" height="3" rx="1.5" fill="#A4A4A4" fill-opacity="0.25"/>
<path d="M9 10.5L8.57574 10.9243L9 11.3485L9.42426 10.9243L9 10.5ZM9.6 3.75C9.6 3.41863 9.33137 3.15 9 3.15C8.66863 3.15 8.4 3.41863 8.4 3.75L9.6 3.75ZM4.82574 7.17426L8.57574 10.9243L9.42426 10.0757L5.67426 6.32574L4.82574 7.17426ZM9.42426 10.9243L13.1743 7.17426L12.3257 6.32574L8.57574 10.0757L9.42426 10.9243ZM9.6 10.5L9.6 3.75L8.4 3.75L8.4 10.5L9.6 10.5Z" fill="white"/>
<path d="M3.75 12L3.75 12.75C3.75 13.5784 4.42157 14.25 5.25 14.25L12.75 14.25C13.5784 14.25 14.25 13.5784 14.25 12.75V12" stroke="white" stroke-width="1.2"/>
</svg>
