<svg width="24" height="24" viewBox="0 0 24 24" fill="none" xmlns="http://www.w3.org/2000/svg">
<g clip-path="url(#clip0_3743_436)">
<path d="M10.1742 18.9199C10.6712 18.9199 11.1542 18.8677 11.6231 18.7634C12.092 18.6591 12.5421 18.5099 12.9736 18.3158C12.6359 17.9034 12.371 17.4412 12.1787 16.9293C11.9865 16.4175 11.8904 15.8753 11.8904 15.3027C11.8904 14.6574 12.0088 14.0521 12.2455 13.4869C12.4824 12.9216 12.8094 12.4231 13.2267 11.9913C13.6441 11.5594 14.1259 11.221 14.6722 10.9759C15.2184 10.7309 15.8034 10.6084 16.427 10.6084C16.7318 10.6084 17.0225 10.6399 17.2991 10.703C17.2007 9.77628 16.9474 8.91263 16.5395 8.11205C16.1316 7.31147 15.6041 6.60793 14.957 6.00143C14.3099 5.39492 13.5784 4.92185 12.7625 4.58221C11.9467 4.24257 11.0815 4.07275 10.1672 4.07275C9.18715 4.07275 8.26459 4.26683 7.39947 4.65499C6.53434 5.04316 5.77121 5.5793 5.11006 6.26343C4.4489 6.94756 3.93194 7.73723 3.55916 8.63242C3.18639 9.52762 3 10.4823 3 11.4963C3 12.5104 3.18756 13.465 3.56268 14.3602C3.9378 15.2554 4.45594 16.0451 5.11709 16.7292C5.77824 17.4133 6.54138 17.9495 7.4065 18.3377C8.27162 18.7258 9.19418 18.9199 10.1742 18.9199ZM6.48862 12.2824C6.35264 12.2824 6.23776 12.2338 6.14398 12.1368C6.0502 12.0398 6.00331 11.9185 6.00331 11.7729C6.00331 11.6322 6.0502 11.5133 6.14398 11.4163C6.23776 11.3192 6.35264 11.2707 6.48862 11.2707H9.68184V6.86751C9.68184 6.7268 9.72873 6.60792 9.82251 6.51088C9.91629 6.41385 10.0312 6.36533 10.1672 6.36533C10.3031 6.36533 10.4192 6.41385 10.5153 6.51088C10.6115 6.60792 10.6595 6.7268 10.6595 6.86751V11.7729C10.6595 11.9185 10.6115 12.0398 10.5153 12.1368C10.4192 12.2338 10.3031 12.2824 10.1672 12.2824H6.48862Z" fill="#007AFF"/>
<path d="M16.4271 19C16.91 19 17.3672 18.9029 17.7986 18.7088C18.23 18.5148 18.611 18.2479 18.9416 17.9083C19.2721 17.5686 19.5312 17.1756 19.7188 16.7292C19.9063 16.2828 20.0001 15.8073 20.0001 15.3027C20.0001 14.7933 19.9075 14.3153 19.7223 13.869C19.537 13.4226 19.2803 13.0296 18.9521 12.69C18.6238 12.3503 18.244 12.0847 17.8127 11.893C17.3813 11.7013 16.9194 11.6055 16.4271 11.6055C15.9394 11.6055 15.4799 11.7013 15.0485 11.893C14.6171 12.0847 14.2373 12.3515 13.9091 12.6935C13.5808 13.0356 13.3229 13.4287 13.1354 13.8726C12.9478 14.3166 12.854 14.7933 12.854 15.3027C12.854 15.8122 12.9478 16.2901 13.1354 16.7365C13.3229 17.1829 13.5808 17.5759 13.9091 17.9156C14.2373 18.2552 14.6171 18.5208 15.0485 18.7125C15.4799 18.9042 15.9394 19 16.4271 19Z" fill="#DEE1E7"/>
<path d="M16.4272 17.6608C16.2678 17.6608 16.1294 17.6014 16.0122 17.4825C15.895 17.3636 15.8364 17.2193 15.8364 17.0495C15.8364 16.8797 15.895 16.7341 16.0122 16.6127C16.1294 16.4915 16.2678 16.4308 16.4272 16.4308C16.596 16.4308 16.7378 16.4927 16.8527 16.6164C16.9676 16.7401 17.0251 16.8845 17.0251 17.0495C17.0251 17.2193 16.9665 17.3636 16.8492 17.4825C16.732 17.6014 16.5913 17.6608 16.4272 17.6608ZM16.4342 15.9287C16.3076 15.9287 16.2057 15.8886 16.1283 15.8085C16.0509 15.7285 16.0099 15.6278 16.0052 15.5065L15.9489 13.425C15.9443 13.2746 15.9865 13.1533 16.0755 13.0611C16.1646 12.9689 16.2842 12.9229 16.4342 12.9229C16.5796 12.9229 16.6968 12.9689 16.7859 13.0611C16.875 13.1533 16.9172 13.2746 16.9125 13.425L16.8563 15.5065C16.8516 15.6278 16.8105 15.7285 16.7332 15.8085C16.6558 15.8886 16.5561 15.9287 16.4342 15.9287Z" fill="#007AFF"/>
</g>
<defs>
<clipPath id="clip0_3743_436">
<rect width="17" height="15" fill="white" transform="translate(3 4)"/>
</clipPath>
</defs>
</svg>
