<svg width="24" height="24" viewBox="0 0 24 24" fill="none" xmlns="http://www.w3.org/2000/svg">
<path d="M5 12H19V16C19 17.8856 19 18.8284 18.4142 19.4142C17.8284 20 16.8856 20 15 20H9C7.11438 20 6.17157 20 5.58579 19.4142C5 18.8284 5 17.8856 5 16V12Z" fill="#007AFF"/>
<path fill-rule="evenodd" clip-rule="evenodd" d="M2.8144 7.8154L4.9991 10.0001V11.0001H6.1991H17.7991H18.9991V10.0001L21.1838 7.8154C21.6141 7.38509 21.5635 6.67342 21.0767 6.3083L18.5651 4.42461C18.2259 4.17022 17.7632 4.15738 17.4104 4.39256L14.9991 6.0001H8.9991L6.58779 4.39256C6.23501 4.15738 5.77227 4.17022 5.43309 4.42461L2.92151 6.3083C2.43467 6.67342 2.38409 7.38509 2.8144 7.8154ZM8.5991 7.2001H15.3991L17.3491 9.8001H6.6491L8.5991 7.2001Z" fill="#7E869E" fill-opacity="0.25"/>
</svg>
