<svg width="24" height="24" viewBox="0 0 24 24" fill="none" xmlns="http://www.w3.org/2000/svg">
<rect x="6" y="5" width="12" height="15" rx="2" fill="#7E869E" fill-opacity="0.25"/>
<path d="M9.5 9.5L14.5 9.5" stroke="#007AFF" stroke-linecap="round"/>
<path d="M9.5 12.5L14.5 12.5" stroke="#007AFF" stroke-linecap="round"/>
<path d="M9.5 15.5L14.5 15.5" stroke="#007AFF" stroke-linecap="round"/>
<path d="M8 4.86957C8 4.38932 8.38932 4 8.86957 4H15.1304C15.6107 4 16 4.38932 16 4.86957C16 4.9416 15.9416 5 15.8696 5H15.5C15.2239 5 15 5.22386 15 5.5V5.85C15 5.93284 14.9328 6 14.85 6H9.15C9.06716 6 9 5.93284 9 5.85V5.5C9 5.22386 8.77614 5 8.5 5H8.13043C8.0584 5 8 4.9416 8 4.86957Z" fill="#007AFF"/>
<path fill-rule="evenodd" clip-rule="evenodd" d="M19.3011 14.2605C19.2721 13.9707 19.0282 13.75 18.7369 13.75H18.263C17.9718 13.75 17.7279 13.9707 17.699 14.2605C17.6539 14.7105 17.1259 14.9292 16.7758 14.6428C16.5504 14.4583 16.2218 14.4747 16.0159 14.6807L15.6809 15.0157C15.4749 15.2216 15.4585 15.5502 15.643 15.7757C15.9294 16.1258 15.7107 16.6539 15.2606 16.6989C14.9707 16.7279 14.75 16.9718 14.75 17.2631V17.7369C14.75 18.0282 14.9707 18.2721 15.2605 18.3011C15.7106 18.3461 15.9293 18.8741 15.6429 19.2242C15.4585 19.4496 15.4749 19.7782 15.6808 19.9841L16.0159 20.3192C16.2218 20.5251 16.5503 20.5415 16.7758 20.3571C17.1259 20.0706 17.6539 20.2894 17.6989 20.7395C17.7279 21.0293 17.9718 21.25 18.2631 21.25H18.7369C19.0282 21.25 19.2721 21.0292 19.3011 20.7394C19.3461 20.2893 19.8741 20.0705 20.2242 20.3569C20.4497 20.5414 20.7782 20.525 20.9841 20.319L21.3192 19.9839C21.5252 19.778 21.5415 19.4495 21.3571 19.2241C21.0707 18.8741 21.2895 18.3461 21.7395 18.3011C22.0293 18.2721 22.25 18.0282 22.25 17.737V17.2631C22.25 16.9718 22.0293 16.7279 21.7395 16.6989C21.2894 16.6539 21.0706 16.1259 21.3571 15.7758C21.5415 15.5504 21.5251 15.2218 21.3192 15.0159L20.9841 14.6808C20.7781 14.4749 20.4496 14.4585 20.2242 14.6429C19.8741 14.9294 19.3461 14.7106 19.3011 14.2605Z" fill="#007AFF"/>
<circle cx="18.5" cy="17.5" r="1.125" fill="#C5C5C5"/>
</svg>
