<svg width="24" height="24" viewBox="0 0 24 24" fill="none" xmlns="http://www.w3.org/2000/svg">
<path d="M7.7335 18.5331H9.29967C9.50387 18.5331 9.70683 18.5571 9.90478 18.6051L11.5596 19.0023C11.9187 19.0887 12.2928 19.0971 12.6556 19.0275L14.4853 18.6759C14.9686 18.5829 15.4132 18.3543 15.7617 18.0196L17.0562 16.7758C17.4259 16.4213 17.4259 15.8459 17.0562 15.4907C16.7234 15.1709 16.1963 15.1349 15.8198 15.4061L14.3111 16.4933C14.095 16.6492 13.8321 16.7332 13.5617 16.7332H12.1048L13.0321 16.7332C13.5548 16.7332 13.9782 16.3264 13.9782 15.8243V15.6425C13.9782 15.2255 13.6828 14.8619 13.2619 14.7611L11.8307 14.4173C11.5977 14.3615 11.3592 14.3333 11.1194 14.3333C10.5405 14.3333 9.49263 14.8067 9.49263 14.8067L7.7335 15.5333M5.3335 15.2815L5.3335 18.7185C5.3335 19.0504 5.3335 19.2164 5.39889 19.3431C5.45642 19.4546 5.5482 19.5453 5.6611 19.6021C5.78945 19.6667 5.95746 19.6667 6.2935 19.6667H6.7735C7.10953 19.6667 7.27754 19.6667 7.40589 19.6021C7.51879 19.5453 7.61058 19.4546 7.6681 19.3431C7.7335 19.2164 7.7335 19.0504 7.7335 18.7185V15.2815C7.7335 14.9496 7.7335 14.7837 7.6681 14.6569C7.61058 14.5454 7.51879 14.4547 7.40589 14.3979C7.27754 14.3333 7.10953 14.3333 6.7735 14.3333H6.2935C5.95746 14.3333 5.78945 14.3333 5.6611 14.3979C5.5482 14.4547 5.45642 14.5454 5.39889 14.6569C5.3335 14.7837 5.3335 14.9496 5.3335 15.2815Z" stroke="#007AFF" stroke-linecap="round" stroke-linejoin="round"/>
<path d="M10.195 10.3591C10.6435 9.33116 11.6585 8.66667 12.78 8.66667H13.887C15.0085 8.66667 16.0235 9.33116 16.472 10.3591V10.3591C16.8785 11.2907 16.1959 12.3333 15.1795 12.3333H11.4875C10.4711 12.3333 9.78848 11.2907 10.195 10.3591V10.3591Z" stroke="#007AFF" stroke-linejoin="round"/>
<path d="M12.1335 6.22222C12.1335 5.54721 12.6708 5 13.3335 5C13.9962 5 14.5335 5.54721 14.5335 6.22222C14.5335 6.89724 13.9962 7.44444 13.3335 7.44444C12.6708 7.44444 12.1335 6.89724 12.1335 6.22222Z" stroke="#007AFF" stroke-linejoin="round"/>
</svg>
