<svg width="24" height="24" viewBox="0 0 24 24" fill="none" xmlns="http://www.w3.org/2000/svg">
<path d="M15.7501 8.49519C16.2466 8.49519 16.6492 8.09268 16.6492 7.59615C16.6492 7.09963 16.2466 6.69711 15.7501 6.69711C15.2536 6.69711 14.8511 7.09963 14.8511 7.59615C14.8511 8.09268 15.2536 8.49519 15.7501 8.49519Z" stroke="#007AFF" stroke-miterlimit="10" stroke-linecap="round" stroke-linejoin="round"/>
<path d="M12.7529 7.85988V7.33244C12.7529 7.02078 13.0077 6.76305 13.3223 6.76305C13.8647 6.76305 14.0865 6.37946 13.8138 5.90897C13.658 5.63926 13.7509 5.28863 14.0236 5.1328L14.542 4.83611C14.7788 4.69526 15.0844 4.77918 15.2253 5.01592L15.2583 5.07286C15.528 5.54336 15.9715 5.54336 16.2442 5.07286L16.2772 5.01592C16.418 4.77918 16.7237 4.69526 16.9604 4.83611L17.4789 5.1328C17.7516 5.28863 17.8445 5.63926 17.6887 5.90897C17.4159 6.37946 17.6377 6.76305 18.1801 6.76305C18.4918 6.76305 18.7495 7.01778 18.7495 7.33244V7.85988C18.7495 8.17155 18.4948 8.42927 18.1801 8.42927C17.6377 8.42927 17.4159 8.81286 17.6887 9.28336C17.8445 9.55607 17.7516 9.90369 17.4789 10.0595L16.9604 10.3562C16.7237 10.4971 16.418 10.4131 16.2772 10.1764L16.2442 10.1195C15.9745 9.64897 15.531 9.64897 15.2583 10.1195L15.2253 10.1764C15.0844 10.4131 14.7788 10.4971 14.542 10.3562L14.0236 10.0595C13.7509 9.90369 13.658 9.55307 13.8138 9.28336C14.0865 8.81286 13.8647 8.42927 13.3223 8.42927C13.0077 8.42927 12.7529 8.17155 12.7529 7.85988Z" stroke="#007AFF" stroke-miterlimit="10" stroke-linecap="round" stroke-linejoin="round"/>
<path d="M17.3845 12.5V15.9C17.3845 16.9986 17.3845 17.5479 17.1707 17.9675C16.9827 18.3365 16.6826 18.6366 16.3135 18.8247C15.8939 19.0385 15.3446 19.0385 14.2461 19.0385H7.44608C6.34751 19.0385 5.79823 19.0385 5.37864 18.8247C5.00955 18.6366 4.70947 18.3365 4.52141 17.9675C4.30762 17.5479 4.30762 16.9986 4.30762 15.9V9.10001C4.30762 8.00144 4.30762 7.45216 4.52141 7.03257C4.70947 6.66348 5.00955 6.3634 5.37864 6.17534C5.79823 5.96155 6.34751 5.96155 7.44608 5.96155H10.8461M4.40276 17.6826C4.7095 16.5791 5.7216 15.7692 6.92285 15.7692H11.4998C12.1074 15.7692 12.4112 15.7692 12.6639 15.8195C13.7014 16.0259 14.5124 16.8369 14.7188 17.8744C14.769 18.127 14.769 18.4308 14.769 19.0385M12.1538 10.8654C12.1538 12.3098 10.9828 13.4808 9.53839 13.4808C8.09395 13.4808 6.923 12.3098 6.923 10.8654C6.923 9.42096 8.09395 8.25001 9.53839 8.25001C10.9828 8.25001 12.1538 9.42096 12.1538 10.8654Z" stroke="#007AFF" stroke-linecap="round" stroke-linejoin="round"/>
</svg>
