<svg width="96" height="96" viewBox="0 0 96 96" fill="none" xmlns="http://www.w3.org/2000/svg">
<g clip-path="url(#clip0_3785_369)">
<rect x="10.0483" y="11.8755" width="78.1045" height="72.1667" fill="white"/>
<path d="M39.3078 25.4685H56.6872C56.8923 25.4685 57.0955 25.4281 57.285 25.3496C57.4745 25.2711 57.6467 25.156 57.7918 25.011C57.9368 24.8659 58.0519 24.6937 58.1304 24.5042C58.2089 24.3147 58.2493 24.1115 58.2493 23.9064C58.2493 23.7013 58.2089 23.4981 58.1304 23.3086C58.0519 23.1191 57.9368 22.9469 57.7918 22.8018C57.6467 22.6568 57.4745 22.5417 57.285 22.4632C57.0955 22.3847 56.8923 22.3443 56.6872 22.3443H39.3306C38.9164 22.3443 38.519 22.5089 38.2261 22.8018C37.9331 23.0948 37.7686 23.4921 37.7686 23.9064C37.7686 24.3207 37.9331 24.718 38.2261 25.011C38.519 25.3039 38.9164 25.4685 39.3306 25.4685H39.3078Z" fill="#D1D3D4"/>
<path d="M72.4545 77.73H35.2155L37.4536 75.5147L38.5727 76.6383L41.1533 67.0146L31.5158 69.5907L32.6349 70.7143L25.6101 77.73H23.5455C22.3091 77.729 21.086 77.4757 19.9509 76.9855L24.0069 72.9295L25.1213 74.0486L27.6974 64.4294L18.0828 67.0055L19.2064 68.1245L15.1824 72.1667C14.7264 71.0647 14.492 69.8836 14.4927 68.6909V66.4528L23.0157 57.9298L24.1393 59.0488L26.7154 49.4297L17.0916 52.0057L18.2107 53.1248L14.4927 56.8519V34.7131C14.4875 32.3694 15.397 30.1162 17.0277 28.4328L0 45.4605V84.2844C-2.36168e-07 87.3895 1.23322 90.3676 3.42849 92.5637C5.62376 94.7599 8.60135 95.9942 11.7065 95.9955H57.8384L78.1273 75.7066C76.5244 77.0117 74.5215 77.7261 72.4545 77.73Z" fill="#007AFF"/>
<path d="M84.2889 0H11.7065C8.60177 0 5.62417 1.23336 3.42877 3.42877C1.23336 5.62417 0 8.60177 0 11.7065L0 45.4605L17.0277 28.4328C17.1053 28.3506 17.183 28.2729 17.2698 28.1953C18.9516 26.5644 21.2029 25.6534 23.5455 25.6557H23.5866V24.3586H30.2872V25.6557H33.9412C33.7552 25.0913 33.6611 24.5006 33.6626 23.9064C33.6626 23.1654 33.8087 22.4318 34.0925 21.7473C34.3763 21.0629 34.7923 20.4412 35.3166 19.9177C35.841 19.3942 36.4634 18.9792 37.1483 18.6965C37.8332 18.4138 38.5671 18.2689 39.308 18.2701H56.6874C57.5786 18.2671 58.4577 18.476 59.2522 18.8796C60.0468 19.2831 60.734 19.8697 61.2573 20.5911C61.7806 21.3124 62.1249 22.1478 62.2619 23.0284C62.3988 23.909 62.3245 24.8095 62.0451 25.6557H65.6991V24.3586H72.3997V25.6557H72.4408C73.631 25.6545 74.8097 25.8879 75.9097 26.3426C77.0096 26.7972 78.0092 27.4642 78.8512 28.3053C79.6932 29.1465 80.3612 30.1454 80.817 31.2449C81.2727 32.3444 81.5073 33.5229 81.5073 34.7131V68.6726C81.5079 70.7489 80.7897 72.7614 79.4747 74.3683C79.0752 74.8615 78.6251 75.3115 78.1319 75.7111L57.843 96H84.2752C87.3812 96 90.3599 94.7662 92.5562 92.5699C94.7525 90.3736 95.9863 87.3949 95.9863 84.2889V11.7065C95.9863 8.60335 94.7542 5.62713 92.5608 3.43199C90.3673 1.23685 87.3921 0.00242153 84.2889 0Z" fill="#D1D3D4"/>
<path d="M61.1222 46.2096V54.1981H51.9872V63.3332H44.0032V54.1981H34.8682V46.2096H44.0032V37.0745H51.9918V46.2096H61.1222Z" fill="#007AFF"/>
</g>
<defs>
<clipPath id="clip0_3785_369">
<rect width="96" height="96" fill="white"/>
</clipPath>
</defs>
</svg>
