<svg width="24" height="24" viewBox="0 0 24 24" fill="none" xmlns="http://www.w3.org/2000/svg">
<path d="M12.0136 17.6867C10.4602 17.6867 8.9069 17.44 7.43357 16.9467C6.87357 16.7533 6.4469 16.36 6.26024 15.8467C6.0669 15.3333 6.13357 14.7667 6.44024 14.26L7.2069 12.9867C7.3669 12.72 7.51357 12.1867 7.51357 11.8733V9.94665C7.51357 7.46666 9.53357 5.44666 12.0136 5.44666C14.4936 5.44666 16.5136 7.46666 16.5136 9.94665V11.8733C16.5136 12.18 16.6602 12.72 16.8202 12.9933L17.5802 14.26C17.8669 14.74 17.9202 15.32 17.7269 15.8467C17.5336 16.3733 17.1136 16.7733 16.5869 16.9467C15.1202 17.44 13.5669 17.6867 12.0136 17.6867ZM12.0136 6.44666C10.0869 6.44666 8.51357 8.01332 8.51357 9.94665V11.8733C8.51357 12.36 8.31357 13.08 8.0669 13.5L7.30024 14.7733C7.15357 15.02 7.11357 15.28 7.20024 15.5C7.28024 15.7267 7.48024 15.9 7.75357 15.9933C10.5402 16.9267 13.4936 16.9267 16.2802 15.9933C16.5202 15.9133 16.7069 15.7333 16.7936 15.4933C16.8802 15.2533 16.8602 14.9933 16.7269 14.7733L15.9602 13.5C15.7069 13.0667 15.5136 12.3533 15.5136 11.8667V9.94665C15.5136 8.01332 13.9469 6.44666 12.0136 6.44666Z" fill="#007AFF"/>
<path d="M13.2536 6.62665C13.2069 6.62665 13.1602 6.61998 13.1136 6.60665C12.9202 6.55332 12.7336 6.51332 12.5536 6.48665C11.9869 6.41332 11.4402 6.45332 10.9269 6.60665C10.7402 6.66665 10.5402 6.60665 10.4136 6.46665C10.2869 6.32665 10.2469 6.12665 10.3202 5.94665C10.5936 5.24665 11.2602 4.78665 12.0202 4.78665C12.7802 4.78665 13.4469 5.23999 13.7202 5.94665C13.7869 6.12665 13.7536 6.32665 13.6269 6.46665C13.5269 6.57332 13.3869 6.62665 13.2536 6.62665Z" fill="#007AFF"/>
<path d="M12.0132 19.2067C11.3532 19.2067 10.7132 18.94 10.2465 18.4733C9.77985 18.0067 9.51318 17.3667 9.51318 16.7067H10.5132C10.5132 17.1 10.6732 17.4867 10.9532 17.7667C11.2332 18.0467 11.6199 18.2067 12.0132 18.2067C12.8399 18.2067 13.5132 17.5333 13.5132 16.7067H14.5132C14.5132 18.0867 13.3932 19.2067 12.0132 19.2067Z" fill="#007AFF"/>
</svg>
