<svg width="24" height="24" viewBox="0 0 24 24" fill="none" xmlns="http://www.w3.org/2000/svg">
<path d="M18 11.6667V9.86668C18 8.74657 18 8.18652 17.782 7.7587C17.5903 7.38237 17.2843 7.07641 16.908 6.88466C16.4802 6.66668 15.9201 6.66668 14.8 6.66668H9.2C8.0799 6.66668 7.51984 6.66668 7.09202 6.88466C6.71569 7.07641 6.40973 7.38237 6.21799 7.7587C6 8.18652 6 8.74657 6 9.86668V15.4667C6 16.5868 6 17.1468 6.21799 17.5747C6.40973 17.951 6.71569 18.2569 7.09202 18.4487C7.51984 18.6667 8.0799 18.6667 9.2 18.6667H12.3333M18 10.6667H6M14.6667 5.33334V8.00001M9.33333 5.33334V8.00001" stroke="#007AFF" stroke-linecap="round" stroke-linejoin="round"/>
<path d="M14.1665 14.6667C14.1665 13.6542 14.9873 12.8333 15.9998 12.8333V12.8333C17.0124 12.8333 17.8332 13.6542 17.8332 14.6667V15.3333C17.8332 15.8743 18.0086 16.4006 18.3332 16.8333L18.4046 16.9286C18.5812 17.164 18.4132 17.5 18.1189 17.5H13.8808C13.5865 17.5 13.4185 17.164 13.5951 16.9286L13.6665 16.8333C13.9911 16.4006 14.1665 15.8743 14.1665 15.3333V14.6667Z" stroke="#007AFF" stroke-width="0.8"/>
<path d="M15.1952 18.2157C15.2427 18.3929 15.3473 18.5495 15.4929 18.6611C15.6384 18.7728 15.8167 18.8333 16.0002 18.8333C16.1836 18.8333 16.3619 18.7728 16.5075 18.6611C16.653 18.5495 16.7576 18.3929 16.8051 18.2157" stroke="#007AFF" stroke-width="0.8" stroke-linecap="round"/>
</svg>
