<svg width="24" height="24" viewBox="0 0 24 24" fill="none" xmlns="http://www.w3.org/2000/svg">
<path d="M2.67824 16.446H13.492L14.1487 15.2878H2.70014C2.53961 15.2878 2.41192 15.241 2.31706 15.1475C2.22221 15.054 2.17478 14.9281 2.17478 14.7698V6.17986C2.17478 6.01679 2.22221 5.88969 2.31706 5.79857C2.41192 5.70744 2.53961 5.66188 2.70014 5.66188H16.6953C16.8558 5.66188 16.9835 5.70744 17.0784 5.79857C17.1732 5.88969 17.2206 6.01679 17.2206 6.17986V10.777C17.3179 10.7386 17.4201 10.7086 17.5271 10.6871C17.6341 10.6655 17.7436 10.6547 17.8554 10.6547C17.9478 10.6547 18.0391 10.6619 18.1291 10.6763C18.2191 10.6907 18.3078 10.7098 18.3954 10.7338V6.11511C18.3954 5.59713 18.2458 5.19905 17.9467 4.92087C17.6475 4.64269 17.2352 4.5036 16.7099 4.5036H2.67824C2.15775 4.5036 1.74791 4.64988 1.44875 4.94245C1.14958 5.23502 1 5.64029 1 6.15828V14.7842C1 15.3022 1.14958 15.7087 1.44875 16.0036C1.74791 16.2986 2.15775 16.446 2.67824 16.446ZM7.34815 19H12.0473C12.2078 19 12.3452 18.9436 12.4595 18.8309C12.5738 18.7182 12.631 18.5803 12.631 18.4173C12.631 18.2542 12.5738 18.1163 12.4595 18.0036C12.3452 17.8909 12.2078 17.8346 12.0473 17.8346H12.0035V16.3526H7.39193V17.8346H7.34815C7.18762 17.8346 7.04899 17.8909 6.93224 18.0036C6.81549 18.1163 6.75712 18.2542 6.75712 18.4173C6.75712 18.5803 6.81549 18.7182 6.93224 18.8309C7.04899 18.9436 7.18762 19 7.34815 19Z" fill="#007AFF"/>
<path d="M21.371 18.3752L21.3711 18.3752C21.4565 18.2852 21.5001 18.1823 21.5001 18.036C21.5001 17.9596 21.4813 17.8838 21.4344 17.8017L21.4341 17.8011L18.2702 12.2379C18.214 12.1449 18.1521 12.0884 18.0867 12.052L21.371 18.3752ZM21.371 18.3752C21.304 18.4458 21.2048 18.5 21.015 18.5H14.696C14.5062 18.5 14.407 18.4458 14.3399 18.3752L14.3399 18.3752C14.2545 18.2852 14.2109 18.1823 14.2109 18.036C14.2109 17.9599 14.2295 17.8889 14.2731 17.8149L14.2732 17.815M21.371 18.3752L14.2732 17.815M14.2732 17.815L14.2773 17.8077M14.2732 17.815L14.2773 17.8077M14.2773 17.8077L17.4367 12.2322C17.4367 12.2322 17.4368 12.2321 17.4368 12.2321C17.4857 12.1458 17.5434 12.0918 17.6112 12.0552C17.6992 12.0078 17.7787 11.9892 17.8555 11.9892C17.932 11.9892 18.0068 12.0076 18.0866 12.052L14.2773 17.8077Z" stroke="#007AFF"/>
<path d="M17.8556 17.9065C17.6902 17.9065 17.5467 17.8465 17.4251 17.7266C17.3035 17.6067 17.2427 17.4629 17.2427 17.295C17.2427 17.1319 17.3035 16.9904 17.4251 16.8705C17.5467 16.7506 17.6902 16.6907 17.8556 16.6907C18.0258 16.6907 18.1718 16.7506 18.2934 16.8705C18.415 16.9904 18.4758 17.1319 18.4758 17.295C18.4709 17.4629 18.4089 17.6067 18.2897 17.7266C18.1706 17.8465 18.0258 17.9065 17.8556 17.9065ZM17.8556 16.1871C17.7291 16.1871 17.6245 16.1487 17.5418 16.0719C17.4592 15.9952 17.4178 15.8945 17.4178 15.7698L17.3594 13.7122C17.3546 13.5683 17.3983 13.4496 17.4907 13.3561C17.5832 13.2626 17.7048 13.2159 17.8556 13.2159C18.0113 13.2159 18.1353 13.2626 18.2277 13.3561C18.3201 13.4496 18.3639 13.5683 18.359 13.7122L18.3007 15.7698C18.2958 15.8945 18.2532 15.9952 18.173 16.0719C18.0927 16.1487 17.9869 16.1871 17.8556 16.1871Z" fill="#007AFF"/>
</svg>
