<svg width="20" height="20" viewBox="0 0 20 20" fill="none" xmlns="http://www.w3.org/2000/svg">
<path d="M0.238281 5.88965H1.70752V3.54053C1.70752 2.9484 1.8597 2.50016 2.16406 2.1958C2.47396 1.89144 2.91943 1.73926 3.50049 1.73926H5.83301V0.27002H3.46729C2.39925 0.27002 1.59408 0.538411 1.05176 1.0752C0.50944 1.60645 0.238281 2.40332 0.238281 3.46582V5.88965ZM7.15283 1.73926H12.8306V0.27002H7.15283V1.73926ZM18.2842 5.88965H19.7534V3.46582C19.7534 2.40885 19.4823 1.61198 18.9399 1.0752C18.3976 0.538411 17.5897 0.27002 16.5161 0.27002H14.1587V1.73926H16.4912C17.0612 1.73926 17.5011 1.89144 17.811 2.1958C18.1265 2.50016 18.2842 2.9484 18.2842 3.54053V5.88965ZM18.2842 12.8291H19.7534V7.21777H18.2842V12.8291ZM14.1587 19.7769H16.5161C17.5897 19.7769 18.3976 19.5085 18.9399 18.9717C19.4823 18.4349 19.7534 17.638 19.7534 16.5811V14.1572H18.2842V16.5063C18.2842 17.0985 18.1265 17.5467 17.811 17.8511C17.5011 18.1554 17.0612 18.3076 16.4912 18.3076H14.1587V19.7769ZM7.15283 19.7769H12.8306V18.3076H7.15283V19.7769ZM3.46729 19.7769H5.83301V18.3076H3.50049C2.91943 18.3076 2.47396 18.1554 2.16406 17.8511C1.8597 17.5467 1.70752 17.0985 1.70752 16.5063V14.1572H0.238281V16.5811C0.238281 17.6436 0.50944 18.4404 1.05176 18.9717C1.59408 19.5085 2.39925 19.7769 3.46729 19.7769ZM0.238281 12.8291H1.70752V7.21777H0.238281V12.8291Z" fill="#007AFF"/>
</svg>
